HIERARCHY
ROOT SpineBase
{
  OFFSET 0.000000 0.000000 0.000000
  CHANNELS 6 Xposition Yposition Zposition Zrotation Xrotation Yrotation
  JOINT SpineMid
  {
    OFFSET -0.000000 25.094805 0.000000
    CHANNELS 3 Zrotation Xrotation Yrotation
    JOINT SpineShoulder
    {
      OFFSET 0.226065 18.640875 -0.830275
      CHANNELS 3 Zrotation Xrotation Yrotation
      JOINT Neck
      {
        OFFSET 0.121198 6.151298 -0.602743
        CHANNELS 3 Zrotation Xrotation Yrotation
        JOINT Head
        {
          OFFSET 3.426224 10.988809 -2.914436
          CHANNELS 3 Zrotation Xrotation Yrotation
          End Site
          {
            OFFSET 0 0 0
          }
        }
      }
      JOINT ShoulderLeft
      {
        OFFSET -15.756488 -2.209135 -7.974538
        CHANNELS 3 Zrotation Xrotation Yrotation
        JOINT ElbowLeft
        {
          OFFSET -6.522206 -21.400855 -6.630875
          CHANNELS 3 Zrotation Xrotation Yrotation
          JOINT WristLeft
          {
            OFFSET 3.412943 -22.398688 -15.178899
            CHANNELS 3 Zrotation Xrotation Yrotation
            JOINT HandLeft
            {
              OFFSET 4.089695 -6.436834 -1.935936
              CHANNELS 3 Zrotation Xrotation Yrotation
              JOINT HandTipLeft
              {
                OFFSET 1.164332 -4.043215 -2.189822
                CHANNELS 3 Zrotation Xrotation Yrotation
                End Site
                {
                  OFFSET 0 0 0
                }
              }
              JOINT ThumbLeft
              {
                OFFSET 3.022138 2.644340 1.923757
                CHANNELS 3 Zrotation Xrotation Yrotation
                End Site
                {
                  OFFSET 0 0 0
                }
              }
            }
          }
        }
      }
      JOINT ShoulderRight
      {
        OFFSET 13.537891 -4.311433 2.356807
        CHANNELS 3 Zrotation Xrotation Yrotation
        JOINT ElbowRight
        {
          OFFSET 7.632025 -24.958279 8.371565
          CHANNELS 3 Zrotation Xrotation Yrotation
          JOINT WristRight
          {
            OFFSET 14.579563 -9.668867 -17.602128
            CHANNELS 3 Zrotation Xrotation Yrotation
            JOINT HandRight
            {
              OFFSET -0.353278 -4.671632 -2.313155
              CHANNELS 3 Zrotation Xrotation Yrotation
              JOINT HandTipRight
              {
                OFFSET -0.023291 -6.918124 -3.531213
                CHANNELS 3 Zrotation Xrotation Yrotation
                End Site
                {
                  OFFSET 0 0 0
                }
              }
              JOINT ThumbRight
              {
                OFFSET 3.151820 4.579088 -3.708714
                CHANNELS 3 Zrotation Xrotation Yrotation
                End Site
                {
                  OFFSET 0 0 0
                }
              }
            }
          }
        }
      }
    }
  }
  JOINT HipLeft
  {
    OFFSET -5.877323 0.296648 -5.772665
    CHANNELS 3 Zrotation Xrotation Yrotation
    JOINT KneeLeft
    {
      OFFSET 9.109338 -7.525482 -30.626487
      CHANNELS 3 Zrotation Xrotation Yrotation
      JOINT AnkleLeft
      {
        OFFSET -1.825544 -35.269754 3.293291
        CHANNELS 3 Zrotation Xrotation Yrotation
        JOINT FootLeft
        {
          OFFSET 2.284388 -6.561122 -11.231852
          CHANNELS 3 Zrotation Xrotation Yrotation
          End Site
          {
            OFFSET 0 0 0
          }
        }
      }
    }
  }
  JOINT HipRight
  {
    OFFSET 5.786685 0.063694 -1.050716
    CHANNELS 3 Zrotation Xrotation Yrotation
    JOINT KneeRight
    {
      OFFSET 23.987515 -6.616759 -21.726652
      CHANNELS 3 Zrotation Xrotation Yrotation
      JOINT AnkleRight
      {
        OFFSET -6.348823 -37.512013 1.514096
        CHANNELS 3 Zrotation Xrotation Yrotation
        JOINT FootRight
        {
          OFFSET 2.092468 -6.568018 -11.222604
          CHANNELS 3 Zrotation Xrotation Yrotation
          End Site
          {
            OFFSET 0 0 0
          }
        }
      }
    }
  }
}
MOTION
Frames: 13
Frame Time: 0.033333
6.565912 52.345486 390.808898 -1.516857 -1.572691 -22.172025 0.141777 0.884345 22.116822 1.051277 0.807875 0.029629 -0.419424 -3.280509 0.892055 0.000000 0.000000 0.000000 0.888501 1.351793 -0.696870 -0.872242 -1.362340 0.676017 -0.000000 0.000000 0.000000 1.878878 -2.211959 -1.627709 0.000000 0.000000 0.000000 0.000000 0.000000 0.000000 0.626609 -0.854603 -0.046288 -0.661616 1.519568 1.110382 2.017341 -0.485234 -2.037205 -0.600970 4.886029 0.190135 0.000000 0.000000 0.000000 0.000000 0.000000 0.000000 1.080632 2.670348 20.757580 -0.478682 -0.504939 1.366123 -0.000000 0.000000 0.000000 0.000000 0.000000 0.000000 1.033613 2.722228 22.607643 -0.928389 0.438074 -0.668931 0.468697 -0.987842 0.190218 0.000000 0.000000 0.000000
6.519539 52.359071 390.847190 -1.590315 -1.607139 -22.272108 0.177739 0.926626 22.214162 1.074076 0.817658 0.030274 -0.429112 -3.213559 0.868883 0.000000 0.000000 0.000000 0.941071 1.298537 -0.697307 -0.925441 -1.309721 0.676064 -1.835895 -2.106451 -0.833120 3.993972 0.898735 -0.831925 0.000000 0.000000 0.000000 0.000000 0.000000 0.000000 0.117054 -1.015521 -0.269360 -0.121846 1.014958 0.271477 3.013558 2.173170 -1.701315 -1.240924 3.494931 0.618367 0.000000 0.000000 0.000000 0.000000 0.000000 0.000000 1.163912 2.728464 20.718467 -0.507021 -0.491230 1.500780 -0.000000 0.000000 0.000000 0.000000 0.000000 0.000000 0.969526 2.628742 22.885972 -0.738680 0.349884 -0.811078 0.286193 1.553696 1.129600 0.000000 0.000000 0.000000
6.492907 52.370562 390.866532 -1.643094 -1.635314 -22.340007 0.210850 0.937403 22.279931 1.091166 0.849070 0.030233 -0.391410 -3.114818 0.849914 0.000000 0.000000 0.000000 1.072139 1.377948 -0.764385 -1.053973 -1.391890 0.738689 -1.417566 1.451251 1.371928 3.157006 -3.150555 -2.717428 0.000000 0.000000 0.000000 0.000000 0.000000 0.000000 -0.502232 -0.873673 -0.438921 0.495583 0.877462 0.431297 4.450384 3.324256 -2.555735 -4.105013 -0.774945 2.136497 0.000000 0.000000 0.000000 0.000000 0.000000 0.000000 1.224101 2.780628 20.676998 -0.531344 -0.487681 1.606584 -0.000000 0.000000 0.000000 0.000000 0.000000 0.000000 0.898978 2.136701 22.299791 -0.550763 0.863686 -0.164175 0.553298 -0.862064 0.172489 0.000000 0.000000 0.000000
6.520898 52.384442 390.856731 -1.603957 -1.637852 -22.427479 0.203521 0.913386 22.369038 1.066768 0.871816 0.028839 -0.446488 -3.016579 0.803984 0.000000 0.000000 0.000000 0.692929 1.324449 -0.625279 -1.408234 -2.557713 0.904427 1.644690 7.486411 3.260872 -0.271147 -7.641113 -4.581760 0.000000 0.000000 0.000000 0.000000 0.000000 0.000000 -1.149004 -0.472347 -0.535489 2.079132 0.862868 -0.611920 3.185683 3.733020 -1.344642 -3.306046 -0.053246 1.770691 0.000000 0.000000 0.000000 0.000000 0.000000 0.000000 1.185984 2.758716 20.756136 -0.530392 -0.476096 1.616332 -0.000000 0.000000 0.000000 0.000000 0.000000 0.000000 1.208513 2.953056 22.561145 -1.332428 0.538672 -0.417452 0.700533 -1.163527 0.232465 0.000000 0.000000 0.000000
6.573489 52.362501 390.853214 -1.532357 -1.654882 -22.355963 0.190829 0.884763 22.300567 1.018761 0.909750 0.026268 -0.526482 -2.854180 0.731454 0.000000 0.000000 0.000000 0.269018 1.298406 -0.480779 -0.850767 -2.311157 0.711548 2.269171 9.346105 4.272611 -1.584926 -11.936010 -6.356285 0.000000 0.000000 0.000000 0.000000 0.000000 0.000000 -1.368095 -0.185512 -0.519465 3.120656 0.938180 -1.544154 1.916638 3.466189 -0.215214 -2.367751 1.428280 1.300292 0.000000 0.000000 0.000000 0.000000 0.000000 0.000000 1.092844 2.809856 20.763032 -0.531493 -0.543719 1.540663 -0.000000 0.000000 0.000000 0.000000 0.000000 0.000000 1.800537 3.785803 21.405025 -2.618058 0.834813 0.456358 1.050023 -2.030731 0.405063 0.000000 0.000000 0.000000
6.649736 52.354414 390.916957 -1.415373 -1.794862 -22.485072 0.125332 0.911024 22.434235 0.606535 0.214370 0.007324 -0.297939 -1.823847 0.648739 0.000000 0.000000 0.000000 0.140394 1.872928 -0.246441 -0.404327 -1.523302 0.606376 1.880199 9.556714 4.825505 -3.177255 -15.007263 -7.211213 0.000000 0.000000 0.000000 0.000000 0.000000 0.000000 -1.060231 0.677987 -0.472139 3.486868 0.975982 -1.959819 0.765015 2.137467 0.734628 -2.634882 1.912905 1.392297 0.000000 0.000000 0.000000 0.000000 0.000000 0.000000 0.878866 2.939965 21.069577 -0.505757 -0.598723 1.367224 -0.000000 0.000000 0.000000 0.000000 0.000000 0.000000 1.847771 4.198236 21.280548 -3.041874 0.931830 0.627437 1.149599 -2.361248 0.470192 0.000000 0.000000 0.000000
6.777260 52.321990 390.948573 -1.222690 -1.846732 -22.310637 0.052057 0.865425 22.268063 0.554777 0.197621 0.008685 -0.439461 -1.494238 0.544138 0.000000 0.000000 0.000000 -0.137585 1.739646 -0.113484 -0.299055 -0.709297 0.644265 1.619629 8.901270 4.795812 -4.760738 -15.391798 -6.845750 0.000000 0.000000 0.000000 0.000000 0.000000 0.000000 -1.206306 0.980403 -0.436422 3.692800 0.570311 -2.445349 -0.124930 2.026944 1.601949 0.786145 3.650482 -0.337313 0.000000 0.000000 0.000000 0.000000 0.000000 0.000000 0.612682 2.985874 21.193876 -0.463744 -0.692600 1.077892 -0.000000 0.000000 0.000000 0.000000 0.000000 0.000000 1.219780 3.701852 22.010310 -2.152720 0.737807 -0.132689 0.852852 -1.857723 0.362913 0.000000 0.000000 0.000000
6.964751 52.347047 390.946235 -0.959924 -1.813759 -22.548878 0.008272 0.745202 22.518739 0.456092 0.184110 0.009845 -0.590389 -1.192038 0.449244 0.000000 0.000000 0.000000 -0.421542 1.529073 0.031397 -0.123860 0.204901 0.613133 1.547556 7.209412 4.095573 -4.727727 -13.351867 -5.615110 0.000000 0.000000 0.000000 0.000000 0.000000 0.000000 -1.274181 1.374524 -0.337864 3.592867 -0.018628 -2.764968 -0.741720 2.978967 2.106831 2.894565 3.660203 -1.298793 0.000000 0.000000 0.000000 0.000000 0.000000 0.000000 0.302068 2.789011 21.750225 -0.379228 -0.651776 0.773220 -0.000000 0.000000 0.000000 0.000000 0.000000 0.000000 0.268537 2.768866 23.669423 -0.704361 0.377094 -1.329648 0.920865 0.870886 -0.164196 0.000000 0.000000 0.000000
6.940838 52.344395 390.799047 -1.020658 -1.561266 -22.337498 0.156405 0.627326 22.306387 0.490901 0.094803 0.015706 -0.761784 -1.002884 0.358271 0.000000 0.000000 0.000000 -0.760549 1.034825 0.263394 0.381489 1.579728 0.364092 0.256951 4.006258 3.060501 -1.723841 -8.452072 -3.890670 0.000000 0.000000 0.000000 0.000000 0.000000 0.000000 -1.109527 1.544762 -0.217402 3.107719 -0.293289 -2.585401 -1.165130 2.961743 2.170319 4.259131 3.263295 -1.937168 0.000000 0.000000 0.000000 0.000000 0.000000 0.000000 0.477296 2.525339 21.505216 -0.371668 -0.598870 0.806019 -0.000000 0.000000 0.000000 0.000000 0.000000 0.000000 -0.007520 1.892995 24.047266 0.302353 -0.201767 -1.717103 0.560308 1.395132 -0.508354 0.000000 0.000000 0.000000
6.812135 52.308097 390.577559 -1.268054 -1.176597 -21.807171 0.408379 0.478890 21.769027 0.536914 -0.014727 0.017434 -0.723836 -0.949432 0.333436 0.000000 0.000000 0.000000 -0.719248 0.639992 0.364903 0.551889 2.546075 0.234854 -1.014922 0.116699 1.336418 -0.294899 -3.267704 -1.395843 0.000000 0.000000 0.000000 0.000000 0.000000 0.000000 -0.877197 1.655207 -0.100249 2.530982 -0.641147 -2.327035 -0.682209 3.077038 1.757336 4.427393 3.248455 -2.035771 0.000000 0.000000 0.000000 0.000000 0.000000 0.000000 0.916742 2.228784 20.800195 -0.400979 -0.559582 0.976064 -0.000000 0.000000 0.000000 0.000000 0.000000 0.000000 -0.382425 0.426222 24.469011 1.645495 -0.930596 -2.410981 -0.268916 -1.010665 -1.012685 0.000000 0.000000 0.000000
6.563384 52.245547 390.266363 -1.632850 -0.696356 -20.968171 0.614432 0.330003 20.919007 0.569892 -0.112440 0.008989 -0.459490 -1.069427 0.352926 0.000000 0.000000 0.000000 0.370844 0.720970 0.019813 -0.217997 2.688273 0.553888 -1.736730 -3.630198 -0.684651 -0.266572 1.098718 1.285042 0.000000 0.000000 0.000000 0.000000 0.000000 0.000000 -0.563539 1.697451 0.025017 1.881803 -1.179313 -1.972216 -0.026127 3.752267 1.204158 3.076558 2.353282 -1.302400 0.000000 0.000000 0.000000 0.000000 0.000000 0.000000 1.556684 1.910762 19.562381 -0.491096 -0.543377 1.372087 0.430422 0.013293 -0.731145 0.000000 0.000000 0.000000 0.056943 -0.202465 23.277281 1.878138 -1.363597 -1.951038 -0.867147 -3.591402 -1.352357 0.000000 0.000000 0.000000
6.119516 52.185253 389.902199 -2.273890 -0.186185 -20.330922 0.874800 0.255098 20.264777 0.670025 -0.218375 -0.003881 -0.031393 -1.264801 0.396786 0.000000 0.000000 0.000000 0.694658 0.470665 0.055970 -0.311204 2.662573 0.614473 -2.099338 -6.328714 -2.470397 0.687852 6.128212 3.217880 0.000000 0.000000 0.000000 0.000000 0.000000 0.000000 -0.190088 1.649282 0.137150 1.148521 -1.790128 -1.462216 2.229151 4.164094 -0.218473 -0.043893 0.069626 0.231721 0.000000 0.000000 0.000000 0.000000 0.000000 0.000000 2.549124 1.600114 18.132683 -0.655255 -0.454366 2.163771 0.446231 -0.048255 -0.780003 0.000000 0.000000 0.000000 0.578675 -0.983246 22.604256 2.590818 -2.142187 -1.723056 -1.602246 -4.801249 -1.702655 0.000000 0.000000 0.000000
5.491809 52.177096 389.512764 -3.209277 0.335137 -19.988346 1.238601 0.257688 19.904496 0.783760 -0.312288 -0.024979 0.625854 -1.613111 0.507986 0.000000 0.000000 0.000000 1.173607 0.161906 0.110191 -0.517581 1.500516 0.581414 -0.039055 -2.511864 -1.072776 -0.617224 4.318473 2.069485 0.000000 0.000000 0.000000 0.000000 0.000000 0.000000 0.353209 1.448690 0.242149 0.328915 -2.282848 -0.757852 4.662481 3.082906 -1.746984 -3.458752 -3.304892 1.860945 0.000000 0.000000 0.000000 0.000000 0.000000 0.000000 3.906403 1.201388 16.616613 -0.863234 -0.179922 3.344969 0.450711 -0.090040 -0.802530 0.000000 0.000000 0.000000 1.849331 -1.120849 21.293511 2.462185 -2.346545 -0.694512 -1.886301 -5.758409 -1.836616 0.000000 0.000000 0.000000
